<?xml version="1.0" encoding="utf-8"?>
<!-- Generator: Adobe Illustrator 17.0.0, SVG Export Plug-In . SVG Version: 6.00 Build 0)  -->
<!DOCTYPE svg PUBLIC "-//W3C//DTD SVG 1.1//EN" "http://www.w3.org/Graphics/SVG/1.1/DTD/svg11.dtd">
<svg version="1.1" id="Layer_1" xmlns="http://www.w3.org/2000/svg" xmlns:xlink="http://www.w3.org/1999/xlink" x="0px" y="0px"
	 width="100px" height="94.907px" viewBox="0 0 100 94.907" enable-background="new 0 0 100 94.907" xml:space="preserve">
<g>
	<polygon fill="#BEBEBE" points="49.998,0 2.549,26.827 97.451,26.827 	"/>
	<rect x="2.549" y="29.827" fill="#BEBEBE" width="94.902" height="7.469"/>
	<polygon fill="#BEBEBE" points="96,85.513 96,81.12 91.053,81.12 91.053,40.18 78.229,40.18 78.229,81.12 67.969,81.12 
		67.969,40.18 55.145,40.18 55.145,81.12 44.885,81.12 44.885,40.18 32.06,40.18 32.06,81.12 21.8,81.12 21.8,40.18 8.976,40.18 
		8.965,81.12 4,81.12 4,85.513 0,85.513 0,94.907 100,94.907 100,85.513 	"/>
</g>
</svg>
