<?xml version="1.0" encoding="utf-8"?>
<!-- Generator: Adobe Illustrator 17.0.0, SVG Export Plug-In . SVG Version: 6.00 Build 0)  -->
<!DOCTYPE svg PUBLIC "-//W3C//DTD SVG 1.1//EN" "http://www.w3.org/Graphics/SVG/1.1/DTD/svg11.dtd">
<svg version="1.1" id="Layer_1" xmlns="http://www.w3.org/2000/svg" xmlns:xlink="http://www.w3.org/1999/xlink" x="0px" y="0px"
	 width="100px" height="100px" viewBox="0 0 100 100" enable-background="new 0 0 100 100" xml:space="preserve">
<g id="Your_Icon">
	<path fill="#FAA209" d="M49.846,99.691C22.315,99.691,0,77.376,0,49.846C0,22.315,22.315,0,49.846,0
		c27.527,0,49.846,22.315,49.846,49.846C99.691,77.376,77.373,99.691,49.846,99.691z M49.846,13.458
		c-20.097,0-36.388,16.291-36.388,36.387s16.291,36.388,36.388,36.388s36.388-16.291,36.388-36.388S69.942,13.458,49.846,13.458z
		 M56.549,73.331h-13.24V56.476h-16.86v-13.24h16.86V26.379h13.24v16.856h16.85v13.24h-16.85
		C56.549,56.475,56.549,73.331,56.549,73.331z"/>
</g>
</svg>
