<?xml version="1.0" encoding="utf-8"?>
<!-- Generator: Adobe Illustrator 17.0.0, SVG Export Plug-In . SVG Version: 6.00 Build 0)  -->
<!DOCTYPE svg PUBLIC "-//W3C//DTD SVG 1.1//EN" "http://www.w3.org/Graphics/SVG/1.1/DTD/svg11.dtd">
<svg version="1.1" id="Layer_1" xmlns="http://www.w3.org/2000/svg" xmlns:xlink="http://www.w3.org/1999/xlink" x="0px" y="0px"
	 width="100px" height="100px" viewBox="0 0 100 100" enable-background="new 0 0 100 100" xml:space="preserve">
<g id="Your_Icon">
	<g>
		<path fill="#BEBEBE" d="M20.946,35.341c6.427,0,11.638-6.762,11.638-13.189s-5.21-11.637-11.638-11.637
			c-6.426,0-11.637,5.21-11.637,11.637S14.52,35.341,20.946,35.341z"/>
	</g>
	<g>
		<path fill="#BEBEBE" d="M78.889,35.341c6.426,0,11.637-6.762,11.637-13.189s-5.211-11.637-11.637-11.637
			c-6.428,0-11.638,5.21-11.638,11.637S72.461,35.341,78.889,35.341z"/>
	</g>
	<path fill="#BEBEBE" d="M35.115,37.127c0-8.22,6.665-14.884,14.885-14.884c8.221,0,14.885,6.664,14.885,14.884
		c0,8.221-6.664,16.87-14.885,16.87C41.78,53.997,35.115,45.348,35.115,37.127z"/>
	<g>
		<path fill="#BEBEBE" d="M84.441,37.12c-1.697,0.833-3.562,1.324-5.553,1.324c-2.041,0-3.953-0.512-5.686-1.384
			c-1.524,0.102-2.982,0.354-4.366,0.719c-0.191,5.361-2.717,10.984-6.732,14.93c1.342,0.276,2.646,0.624,3.896,1.05V51
			c0-0.552,0.448-1,1-1s1,0.448,1,1v3.518c4.588,1.936,8.346,4.885,10.768,8.482h3.375C84.137,63,86,62.751,88,62.311V51
			c0-0.552,0.448-1,1-1s1,0.448,1,1v10.711c6-2.079,9.918-6.484,9.918-11.71C99.918,43.299,93.123,37.937,84.441,37.12z"/>
	</g>
	<path fill="#BEBEBE" d="M58.947,55.244c-2.63,1.697-5.661,2.722-8.947,2.722c-3.212,0-6.18-0.98-8.769-2.609
		C30.942,56.968,23.208,63.86,23.208,72c0,6.081,4.318,11.465,10.792,14.472V74c0-0.828,0.671-1.5,1.5-1.5S37,73.172,37,74v13.644
		C39.715,88.516,42.701,89,45.837,89h9.318c2.758,0,5.4-0.375,7.845-1.059V74c0-0.828,0.672-1.5,1.5-1.5S66,73.172,66,74v12.908
		C73.021,84.006,77.784,78.387,77.784,72C77.784,63.647,69.639,56.611,58.947,55.244z"/>
	<g>
		<path fill="#BEBEBE" d="M38.076,52.881c-4.109-3.944-6.707-9.633-6.913-15.062c-1.434-0.388-2.95-0.653-4.532-0.759
			c-1.732,0.872-3.645,1.384-5.686,1.384c-1.99,0-3.855-0.492-5.553-1.324C6.711,37.937,0,43.299,0,50.001
			c0,5.226,4.088,9.631,10,11.71V51c0-0.552,0.448-1,1-1s1,0.448,1,1v11.311C13.788,62.751,15.698,63,17.692,63h4.531
			c2.246-3.335,5.637-6.115,9.777-8.045V51c0-0.552,0.448-1,1-1s1,0.448,1,1v3.116C35.302,53.622,36.665,53.208,38.076,52.881z"/>
	</g>
</g>
</svg>
